<svg xmlns="http://www.w3.org/2000/svg" width="512" height="512" viewBox="0 0 512 512" fill="none">
  <rect width="512" height="512" fill="#002A43"/>
  <path d="M85 100H244V150H200V380H130V150H85V100Z" fill="white"/>
  <path d="M270 200C270 177.909 287.909 160 310 160H380C402.091 160 420 177.909 420 200V300C420 322.091 402.091 340 380 340H330V390H390V440H290V290C290 278.954 298.954 270 310 270H350C361.046 270 370 261.046 370 250V210C370 198.954 361.046 190 350 190H330C318.954 190 310 198.954 310 210V240H270V200Z" fill="#37CC6F"/>
</svg>
